<svg width="120" height="34" viewBox="0 0 120 34" fill="none" xmlns="http://www.w3.org/2000/svg">
<path d="M18.3469 17.789H18.5494V18.0399H12.8555V17.789H13.0832C13.4375 17.789 13.699 17.6803 13.8677 17.4628C14.0533 17.2287 14.1461 17.0112 14.1461 16.8105C14.1461 16.6098 14.1124 16.409 14.0449 16.2083L12.4253 11.943H5.59265L3.89714 16.2334C3.82966 16.4341 3.79591 16.6349 3.79591 16.8356C3.79591 17.0196 3.88027 17.2287 4.04897 17.4628C4.23455 17.6803 4.50448 17.789 4.85877 17.789H5.08652V18.0399H0V17.789H0.227755C0.649523 17.789 1.06286 17.6552 1.46775 17.3876C1.87265 17.1199 2.20163 16.7269 2.45469 16.2083L8.17387 2.70975C8.79808 1.35488 9.11019 0.493442 9.11019 0.125451H9.33795L16.12 16.2083C16.3562 16.7269 16.6767 17.1199 17.0816 17.3876C17.4865 17.6552 17.9083 17.789 18.3469 17.789ZM5.89632 11.1903H12.1216L9.08489 3.13629L5.89632 11.1903Z" fill="white"/>
<path d="M20.0909 17.789C20.5295 17.789 20.9007 17.6385 21.2043 17.3374C21.5249 17.0196 21.6936 16.6432 21.7105 16.2083V2.15777C21.6598 1.75632 21.4827 1.42178 21.179 1.15415C20.8753 0.869796 20.5126 0.727618 20.0909 0.727618H19.7872L19.7619 0.476715H27.1766C27.6996 0.476715 28.2647 0.426535 28.8721 0.326174C29.4963 0.225813 29.9349 0.125452 30.188 0.0250899V3.18647H29.9349V2.73484C29.9349 2.3334 29.7915 1.9905 29.5047 1.70614C29.2348 1.42178 28.9058 1.27124 28.5178 1.25451H23.3553V9.00741H27.6321C27.9695 8.99069 28.2563 8.86523 28.4925 8.63106C28.7287 8.39688 28.8468 8.10416 28.8468 7.7529V7.40163H29.0998V11.3659H28.8468V10.9895C28.8468 10.655 28.7287 10.3707 28.4925 10.1365C28.2732 9.9023 27.9948 9.77685 27.6574 9.76012H23.3553V17.2621H26.9741C28.2226 17.2621 29.1757 16.9861 29.8337 16.4341C30.4917 15.8821 31.04 15.0625 31.4786 13.9753H31.7317L30.2639 18.0399H19.7619V17.789H20.0909Z" fill="white"/>
<path d="M47.7542 2.70975C47.7542 2.30831 47.6108 1.96541 47.324 1.68105C47.0372 1.37997 46.6998 1.22106 46.3117 1.20433H41.5036V16.2334C41.5204 16.6683 41.6807 17.0363 41.9844 17.3374C42.3049 17.6385 42.6845 17.789 43.1232 17.789H43.4521V18.0399H37.9101V17.789H38.2391C38.6777 17.789 39.0489 17.6385 39.3526 17.3374C39.6731 17.0363 39.8418 16.6767 39.8587 16.2585V1.20433H35.0505C34.6456 1.22106 34.2998 1.37997 34.013 1.68105C33.743 1.96541 33.6081 2.30831 33.6081 2.70975V3.13629L33.355 3.16138V0C33.6081 0.100361 34.0467 0.200722 34.6709 0.301084C35.2951 0.401445 35.8687 0.451625 36.3917 0.451625H44.9452C45.7719 0.451625 46.4551 0.393081 46.995 0.275994C47.5517 0.142179 47.8891 0.0501809 48.0072 0V3.16138L47.7542 3.13629V2.70975Z" fill="white"/>
<path d="M50.3395 17.789C50.7782 17.789 51.1493 17.6385 51.453 17.3374C51.7736 17.0196 51.9423 16.6432 51.9591 16.2083V2.15777C51.9085 1.75632 51.7314 1.42178 51.4277 1.15415C51.124 0.869796 50.7613 0.727618 50.3395 0.727618H50.0359L50.0106 0.476715H57.4253C57.9482 0.476715 58.5134 0.426535 59.1208 0.326174C59.745 0.225813 60.1836 0.125452 60.4367 0.0250899V3.18647H60.1836V2.73484C60.1836 2.3334 60.0402 1.9905 59.7534 1.70614C59.4835 1.42178 59.1545 1.27124 58.7665 1.25451H53.604V9.00741H57.8808C58.2182 8.99069 58.505 8.86523 58.7412 8.63106C58.9774 8.39688 59.0955 8.10416 59.0955 7.7529V7.40163H59.3485V11.3659H59.0955V10.9895C59.0955 10.655 58.9774 10.3707 58.7412 10.1365C58.5218 9.9023 58.2435 9.77685 57.9061 9.76012H53.604V17.2621H57.2228C58.4712 17.2621 59.4244 16.9861 60.0824 16.4341C60.7404 15.8821 61.2887 15.0625 61.7273 13.9753H61.9804L60.5126 18.0399H50.0106V17.789H50.3395Z" fill="white"/>
<path d="M69.5819 1.25451H67.9623V16.2083C67.9623 16.6432 68.1141 17.0196 68.4178 17.3374C68.7383 17.6385 69.1264 17.789 69.5819 17.789H69.8855L69.9108 18.0399H64.3688V17.789H64.6978C65.1364 17.789 65.5076 17.6385 65.8113 17.3374C66.1318 17.0363 66.3005 16.6683 66.3174 16.2334V2.30831C66.3005 1.87341 66.1318 1.50542 65.8113 1.20433C65.5076 0.886523 65.1364 0.727618 64.6978 0.727618H64.3688V0.476715H71.2015C72.7367 0.476715 73.9429 0.90325 74.8202 1.75632C75.6975 2.59266 76.1361 3.68827 76.1361 5.04315C76.1361 6.3813 75.7144 7.54381 74.8708 8.5307C74.0442 9.50086 73.0319 9.98593 71.8341 9.98593C72.0872 10.103 72.3824 10.3372 72.7198 10.6885C73.0741 11.023 73.3862 11.3743 73.6561 11.7423C75.107 13.7997 76.0518 15.0709 76.4904 15.556C76.9291 16.0243 77.2412 16.3505 77.4268 16.5345C77.6123 16.7018 77.8148 16.869 78.0341 17.0363C78.2534 17.2036 78.4727 17.3374 78.6921 17.4377C79.1813 17.6719 79.7043 17.789 80.261 17.789V18.0399H78.8692C78.1438 18.0399 77.4689 17.9145 76.8447 17.6636C76.2205 17.3959 75.7481 17.1283 75.4276 16.8607C75.1239 16.5763 74.854 16.3087 74.6178 16.0578C74.3985 15.7902 73.7742 14.9204 72.7451 13.4484C71.716 11.9764 71.1171 11.1401 70.9484 10.9394C70.7797 10.7219 70.6025 10.5128 70.417 10.3121C69.8771 9.74339 69.3372 9.45904 68.7974 9.45904V9.20813C68.9323 9.22486 69.1095 9.23323 69.3288 9.23323C69.5481 9.23323 69.8181 9.22486 70.1386 9.20813C72.2306 9.15795 73.5465 8.28816 74.0863 6.59875C74.1876 6.26421 74.2382 5.95476 74.2382 5.6704C74.2382 5.36932 74.2382 5.17696 74.2382 5.09333C74.2044 3.97263 73.9092 3.06938 73.3525 2.38358C72.7957 1.69778 72.045 1.32979 71.1002 1.2796C70.6953 1.26288 70.1892 1.25451 69.5819 1.25451Z" fill="white"/>
<path d="M98.8986 0.727618C98.4768 0.727618 98.1141 0.87816 97.8104 1.17924C97.5067 1.4636 97.3465 1.81486 97.3296 2.23304V15.1796C97.3296 16.1498 97.3886 17.0698 97.5067 17.9396L97.5573 18.3912H97.3296L83.5378 3.78863V16.2836C83.5546 16.869 83.8161 17.3039 84.3223 17.5883C84.5585 17.7221 84.8115 17.789 85.0814 17.789H85.5623V18.0399H80.3492V17.789H80.83C81.2518 17.789 81.6145 17.6468 81.9182 17.3625C82.2219 17.0614 82.3737 16.6934 82.3737 16.2585V3.23665C82.3737 2.21631 82.3147 1.30469 82.1966 0.501805L82.1459 0.100362H82.399L96.1908 14.7029V2.25813C96.1739 1.82323 96.0137 1.4636 95.71 1.17924C95.4063 0.87816 95.0436 0.727618 94.6218 0.727618H94.141V0.476715H99.3541V0.727618H98.8986Z" fill="white"/>
<path d="M118.237 17.789H118.439V18.0399H112.745V17.789H112.973C113.327 17.789 113.589 17.6803 113.758 17.4628C113.943 17.2287 114.036 17.0112 114.036 16.8105C114.036 16.6098 114.002 16.409 113.935 16.2083L112.315 11.943H105.482L103.787 16.2334C103.72 16.4341 103.686 16.6349 103.686 16.8356C103.686 17.0196 103.77 17.2287 103.939 17.4628C104.124 17.6803 104.394 17.789 104.749 17.789H104.976V18.0399H99.8899V17.789H100.118C100.539 17.789 100.953 17.6552 101.358 17.3876C101.763 17.1199 102.091 16.7269 102.345 16.2083L108.064 2.70975C108.688 1.35488 109 0.493442 109 0.125451H109.228L116.01 16.2083C116.246 16.7269 116.567 17.1199 116.971 17.3876C117.376 17.6552 117.798 17.789 118.237 17.789ZM105.786 11.1903H112.011L108.975 3.13629L105.786 11.1903Z" fill="white"/>
<path fill-rule="evenodd" clip-rule="evenodd" d="M119.91 25.2761H72.0933V24.2761H119.91V25.2761Z" fill="white"/>
<path fill-rule="evenodd" clip-rule="evenodd" d="M48.5527 25.2761H0V24.2761H48.5527V25.2761Z" fill="white"/>
<path fill-rule="evenodd" clip-rule="evenodd" d="M63.166 25.1214C63.1749 23.2864 61.3533 20.0234 60.3169 18.9882C60.2485 19.0475 60.1684 19.1277 60.0794 19.227C60.0106 19.3036 59.9365 19.3916 59.8583 19.4903C59.0435 20.5173 57.7827 22.6924 57.4884 25.1143C57.3598 27.6583 58.8377 29.23 60.3314 30.5564C61.7947 29.3271 63.258 27.483 63.166 25.1214ZM60.3429 29.6481C61.5581 28.505 62.5631 26.9854 62.4918 25.1554L62.4913 25.1406L62.4913 25.1257C62.495 24.3761 62.1055 23.2217 61.5289 22.0618C61.1323 21.2638 60.6841 20.5364 60.2985 20.0181C60.0328 20.3675 59.7051 20.8623 59.3806 21.4736C58.8324 22.506 58.3307 23.8014 58.161 25.1646C58.0697 27.139 59.0715 28.454 60.3429 29.6481Z" fill="white"/>
<path fill-rule="evenodd" clip-rule="evenodd" d="M58.3187 24.7627C56.998 23.5782 53.4708 22.9678 52.0575 23.1475C52.0482 24.067 52.7652 27.1915 54.6713 29.3801C56.4277 31.1168 58.5119 30.922 60.429 30.5569C60.4791 28.577 60.0848 26.2028 58.3187 24.7627ZM59.7726 29.969C59.7341 28.2191 59.2824 26.4159 57.9225 25.3071L57.9101 25.2969L57.8981 25.2861C57.3738 24.8159 56.305 24.3952 55.0964 24.1204C54.2448 23.9267 53.4124 23.825 52.7867 23.8107C52.8662 24.2587 53.0165 24.8682 53.2615 25.5564C53.6552 26.6625 54.2665 27.894 55.1347 28.8978C56.4895 30.2235 58.0732 30.246 59.7726 29.969Z" fill="white"/>
<path fill-rule="evenodd" clip-rule="evenodd" d="M65.9547 29.6123C67.3359 28.5083 68.6788 24.9936 68.8271 23.4913C67.9842 23.2778 64.9543 23.327 62.5207 24.8142C60.5355 26.2467 60.2524 28.4466 60.1628 30.5114C61.9709 31.0022 64.2398 31.1206 65.9547 29.6123ZM60.8486 29.9646C62.4599 30.3097 64.2153 30.2414 65.5379 29.0781L65.5497 29.0677L65.5619 29.0579C66.1138 28.6168 66.7387 27.6005 67.2592 26.4109C67.6241 25.5767 67.9013 24.742 68.0538 24.0986C67.6258 24.0825 67.0374 24.1035 66.3575 24.2034C65.2533 24.3657 63.9844 24.7256 62.8674 25.4029C61.3447 26.5136 60.9714 28.1497 60.8486 29.9646Z" fill="white"/>
</svg>
